<svg xmlns="http://www.w3.org/2000/svg" viewBox="0 0 68.17 100"><defs><style>.cls-1{opacity:0.8;}.cls-2{fill:#f9f9f9;}</style></defs><title>iconCatalog</title><g id="Layer_2" data-name="Layer 2"><g id="Layer_1-2" data-name="Layer 1"><g class="cls-1"><path class="cls-2" d="M1.64,90.86l31.82,9h0l.23,0h.07l.28,0h0l.28,0h.07l.24-.05h.09l31.77-9a2.26,2.26,0,0,0,1.64-2.18V2.26A2.26,2.26,0,0,0,65.29.09L34.09,9,2.88.09A2.26,2.26,0,0,0,0,2.26V88.69A2.26,2.26,0,0,0,1.64,90.86Zm62-3.89-27.3,7.76V13l27.3-7.76ZM4.52,5.26,31.82,13V94.74L4.52,87V5.26Z"/><path class="cls-2" d="M25.66,81.68l-13.72-3.9a2.26,2.26,0,0,0-1.24,4.35L24.42,86a2.26,2.26,0,0,0,1.24-4.35Z"/><path class="cls-2" d="M25.66,70.36l-13.72-3.9a2.26,2.26,0,0,0-1.24,4.35l13.72,3.9a2.26,2.26,0,0,0,1.24-4.35Z"/><path class="cls-2" d="M25.66,59.05l-13.72-3.9a2.26,2.26,0,0,0-1.24,4.35l13.72,3.9a2.26,2.26,0,0,0,1.24-4.35Z"/><path class="cls-2" d="M25.66,17.87,11.93,14a2.26,2.26,0,0,0-2.88,2.18V46a2.26,2.26,0,0,0,1.64,2.18l13.72,3.9a2.26,2.26,0,0,0,2.88-2.18V20.05A2.26,2.26,0,0,0,25.66,17.87Zm-2.88,29-9.2-2.62V19.14l9.2,2.62Z"/><path class="cls-2" d="M43.76,22.23l13.73-3.9A2.26,2.26,0,1,0,56.24,14l-13.73,3.9a2.26,2.26,0,0,0,1.24,4.35Z"/><path class="cls-2" d="M56.86,77.69a2.26,2.26,0,0,0-.62.09l-13.73,3.9A2.26,2.26,0,0,0,43.76,86l13.73-3.9a2.26,2.26,0,0,0-.62-4.44Z"/><path class="cls-2" d="M43.76,74.72l13.73-3.9a2.26,2.26,0,1,0-1.24-4.35l-13.73,3.9a2.26,2.26,0,0,0,1.24,4.35Z"/></g></g></g></svg>