<svg xmlns="http://www.w3.org/2000/svg" viewBox="0 0 64.53 60"><defs><style>.cls-1{opacity:0.8;}.cls-2{fill:#f9f9f9;}</style></defs><title>iconLike</title><g id="Layer_2" data-name="Layer 2"><g id="Layer_1-2" data-name="Layer 1"><g class="cls-1"><path class="cls-2" d="M64.43,17.89C63.48,7.52,56.14,0,47,0A17.36,17.36,0,0,0,32.09,8.57,16.73,16.73,0,0,0,17.57,0C8.39,0,1,7.52.11,17.89a18.45,18.45,0,0,0,.55,6.8A29.16,29.16,0,0,0,9.59,39.6L32.07,60,54.94,39.6a29.16,29.16,0,0,0,8.93-14.91A18.49,18.49,0,0,0,64.43,17.89Zm-3,6.23a26.67,26.67,0,0,1-8.18,13.63L32.09,56.66,11.26,37.76A26.69,26.69,0,0,1,3.07,24.12a16.12,16.12,0,0,1-.52-5.83l0-.13c.81-9.08,7.11-15.68,15-15.68,5.82,0,10.94,3.57,13.37,9.33l1.14,2.71,1.14-2.71A15,15,0,0,1,47,2.48c7.88,0,14.19,6.59,15,15.8A16.1,16.1,0,0,1,61.46,24.12Z"/></g></g></g></svg>