<svg xmlns="http://www.w3.org/2000/svg" viewBox="0 0 60 60"><defs><style>.cls-1{fill:#f9f9f9;opacity:0.8;}</style></defs><title>iconEdit</title><g id="Layer_2" data-name="Layer 2"><g id="Layer_1-2" data-name="Layer 1"><path class="cls-1" d="M57.14,2.86a9.79,9.79,0,0,0-13.82,0L4.16,42l0,.06L4,42.16a1.06,1.06,0,0,0-.14.26l0,.08v0L0,58.66a1.08,1.08,0,0,0,0,.22s0,0,0,0a1.08,1.08,0,0,0,.07.36l0,.08a1.08,1.08,0,0,0,.21.32,1.09,1.09,0,0,0,.36.24,1.08,1.08,0,0,0,.41.08l.25,0,16.13-3.84.08,0,.11,0a1.07,1.07,0,0,0,.22-.13l.08-.06,0,0L57.14,16.68A9.79,9.79,0,0,0,57.14,2.86ZM55.61,4.39a7.61,7.61,0,0,1,.71,9.92L45.68,3.69A7.61,7.61,0,0,1,55.61,4.39ZM50.23,20.52,39.48,9.77,41,8.23,51.77,19ZM5.39,54.61a1.08,1.08,0,0,0-1.54,0L3,55.43,5.8,43.78l4.8-.53L10,48.81a1.08,1.08,0,0,0,0,.12,1.11,1.11,0,0,0,0,.12s0,.07,0,.1a1.1,1.1,0,0,0,.05.18,1.06,1.06,0,0,0,.1.2l.11.14a1.09,1.09,0,0,0,.17.15l.15.09a1.13,1.13,0,0,0,.22.07l.12,0h.24l5.56-.62-.53,4.8L4.57,57l.82-.82A1.09,1.09,0,0,0,5.39,54.61ZM19,48.66l24.3-24.3a1.09,1.09,0,0,0-1.54-1.54l-24.3,24.3-5.18.58.58-5.18,24.3-24.3a1.09,1.09,0,1,0-1.54-1.54L11.34,41l-3.46.38L37.94,11.3,48.69,22.05,18.63,52.12ZM53.3,17.45,42.55,6.7l1.54-1.54L54.84,15.91Z"/></g></g></svg>