<svg xmlns="http://www.w3.org/2000/svg" viewBox="0 0 56.56 60"><defs><style>.cls-1{opacity:0.8;}.cls-2{fill:#f9f9f9;}</style></defs><title>iconShare</title><g id="Layer_2" data-name="Layer 2"><g id="Layer_1-2" data-name="Layer 1"><g class="cls-1"><path class="cls-2" d="M45.82,38.55a10.74,10.74,0,0,0-8.5,4.19L20.84,33.53a10.76,10.76,0,0,0,.6-3.54,10.53,10.53,0,0,0-.61-3.55L37.3,17.24a10.72,10.72,0,1,0-2.22-6.52,10.47,10.47,0,0,0,.61,3.55L19.24,23.47a10.72,10.72,0,1,0,0,13L35.73,45.7a10.72,10.72,0,1,0,10.09-7.15Zm0-35.17a7.36,7.36,0,1,1-7.36,7.36A7.37,7.37,0,0,1,45.82,3.38Zm-35.08,34A7.36,7.36,0,1,1,18.1,30,7.37,7.37,0,0,1,10.74,37.35ZM45.82,56.62a7.36,7.36,0,1,1,7.36-7.36A7.37,7.37,0,0,1,45.82,56.62Z"/></g></g></g></svg>