<svg xmlns="http://www.w3.org/2000/svg" viewBox="0 0 48.81 60"><defs><style>.cls-1{opacity:0.8;}.cls-2{fill:#f9f9f9;}</style></defs><title>iconDelete</title><g id="Layer_2" data-name="Layer 2"><g id="Layer_1-2" data-name="Layer 1"><g class="cls-1"><path class="cls-2" d="M24.41,51.86a1,1,0,0,0,1-1V17.29a1,1,0,0,0-2,0V50.85A1,1,0,0,0,24.41,51.86Z"/><path class="cls-2" d="M14.24,51.86a1,1,0,0,0,1-1V17.29a1,1,0,0,0-2,0V50.85A1,1,0,0,0,14.24,51.86Z"/><path class="cls-2" d="M34.58,51.86a1,1,0,0,0,1-1V17.29a1,1,0,0,0-2,0V50.85A1,1,0,0,0,34.58,51.86Z"/><path class="cls-2" d="M47.8,6.1H33.51a8.08,8.08,0,0,0-1.84-4.79A4.3,4.3,0,0,0,28.47,0H18.31a4.3,4.3,0,0,0-3.2,1.31A8.08,8.08,0,0,0,13.26,6.1H1a1,1,0,1,0,0,2H3.09L5,54.94A4.93,4.93,0,0,0,10,60H38.78a4.93,4.93,0,0,0,5-5L45.72,8.14H47.8a1,1,0,0,0,0-2ZM16.57,2.73A2.31,2.31,0,0,1,18.31,2H28.47a2.31,2.31,0,0,1,1.74.69A6,6,0,0,1,31.47,6.1H15.31A6,6,0,0,1,16.57,2.73ZM41.74,54.89a3,3,0,0,1-3,3.07H10c-2.78,0-2.95-2.76-3-3.09L5.13,8.14H43.69Z"/></g></g></g></svg>