<svg xmlns="http://www.w3.org/2000/svg" viewBox="0 0 965.82 863"><defs><style>.cls-1{fill:#c6c6c6;}.cls-2,.cls-3,.cls-4{fill:#dbdbdb;}.cls-3{font-size:68.57px;}.cls-3,.cls-4{font-family:Optima-ExtraBlack, Optima;}.cls-4{font-size:41.87px;}.cls-5{fill:#f9f9f9;opacity:0.41;}</style></defs><title>imgAddPic</title><g id="Layer_2" data-name="Layer 2"><g id="Layer_1-2" data-name="Layer 1"><rect class="cls-1" width="965.82" height="863"/><path class="cls-2" d="M460.2,283.51c-12.67-3.28-28.8-13-42.81-29.92,22.92,17.3,36,25.9,65.23,27.9-13.85-3-31.48-10.75-39.66-30.62-7.14-17.36-10.37-31.66-13.76-42.62-1.07,4.94-3.94,9.72-10.09,13.34,0,0,2.75-2.38,4.81-7.8a22.7,22.7,0,0,0-24.55-30.53h0c-27.3,4.11-39.61,55.21.42,93.53,24.55,22.74,55.65,21.4,77.05,16.14,25.33,2.84,50.47-6.12,67.73-29.69C538.56,268.32,509,296.14,460.2,283.51Z"/><text class="cls-3" transform="translate(403.67 360.06)">eBird</text><text class="cls-4" transform="translate(507.23 396.03)">App</text><path class="cls-5" d="M482.91,592a11.57,11.57,0,0,1-11.51-11.31V536.51H427.22a11.51,11.51,0,0,1,0-23H471.4V469.31a11.51,11.51,0,0,1,23,0v44.18H538.6a11.51,11.51,0,0,1,0,23H494.42v44.18A11.57,11.57,0,0,1,482.91,592Z"/></g></g></svg>