<svg xmlns="http://www.w3.org/2000/svg" viewBox="0 0 965.82 863"><defs><style>.cls-1{fill:#c6c6c6;}.cls-2,.cls-3,.cls-4{fill:#dbdbdb;}.cls-3{font-size:115.41px;}.cls-3,.cls-4{font-family:Optima-ExtraBlack, Optima;}.cls-4{font-size:70.46px;}</style></defs><title>imgDefault</title><g id="Layer_2" data-name="Layer 2"><g id="Layer_1-2" data-name="Layer 1"><rect class="cls-1" width="965.82" height="863"/><path class="cls-2" d="M444.68,412.16c-21.33-5.53-48.47-21.81-72.06-50.36,38.57,29.11,60.61,43.59,109.79,47-23.31-5-53-18.09-66.75-51.54-12-29.22-17.45-53.29-23.15-71.72-1.8,8.32-6.64,16.35-17,22.45,0,0,4.62-4,8.09-13.13a38.21,38.21,0,0,0-41.32-51.39h0c-46,6.91-66.66,92.92.71,157.41,41.32,38.28,93.66,36,129.68,27.17,42.63,4.77,84.95-10.31,114-50C576.56,386.59,526.76,433.42,444.68,412.16Z"/><text class="cls-3" transform="translate(349.54 541)">eBird</text><text class="cls-4" transform="translate(523.84 601.54)">App</text></g></g></svg>