<svg xmlns="http://www.w3.org/2000/svg" viewBox="0 0 220 220"><title>logoApp</title><g id="Layer_2" data-name="Layer 2"><g id="Layer_1-2" data-name="Layer 1"><path d="M167.06,174.08a4.05,4.05,0,0,0-.64-1.48,1.43,1.43,0,0,0-1.23-.59,1.47,1.47,0,0,0-1.21.56,3.58,3.58,0,0,0-.65,1.4,9.65,9.65,0,0,0-.25,1.83q0,1,0,1.85a20.32,20.32,0,0,0,.16,2.82,7,7,0,0,0,.45,1.75,2,2,0,0,0,.69.91,1.59,1.59,0,0,0,.88.25,1.71,1.71,0,0,0,1.63-1.24,12.08,12.08,0,0,0,.51-4.18q0-.92,0-2A9.85,9.85,0,0,0,167.06,174.08Z"/><path d="M100.78,141.06H98.59v9.3q0,1.41,0,2.27t0,1.65q1.57,0,2.87-.1a4.48,4.48,0,0,0,2.25-.76,4.18,4.18,0,0,0,1.46-2.06,11.88,11.88,0,0,0,.52-4,7.71,7.71,0,0,0-1.23-4.67A4.36,4.36,0,0,0,100.78,141.06Z"/><path d="M104.31,135.52a6.55,6.55,0,0,0,1.23-4.23,12.61,12.61,0,0,0-.21-2.35,4.4,4.4,0,0,0-.81-1.88,4,4,0,0,0-1.65-1.23,7,7,0,0,0-2.72-.44H99a1.54,1.54,0,0,0-.37.05q0,.68,0,1.44t0,2V137h1.93A4.58,4.58,0,0,0,104.31,135.52Z"/><path d="M71,137a4.22,4.22,0,0,0-.84-1.75,2.07,2.07,0,0,0-1.67-.68,2.25,2.25,0,0,0-1.78.71,4.29,4.29,0,0,0-.91,1.78,10.79,10.79,0,0,0-.34,2.38q-.05,1.31-.05,2.51h5.9q0-1.25,0-2.56A11,11,0,0,0,71,137Z"/><path d="M138.16,178.51c.23,0,.47,0,.7,0h4.21c.23,0,.47,0,.7,0L141,171.08Z"/><path d="M0,0V220H220V0ZM162,131.39q-.26,1.31-.39,2.38t-.21,2.12q-.08,1-.1,2.25t0,2.82l-.68.37a5.06,5.06,0,0,0-1.8-1.07,6.89,6.89,0,0,0-2.06-.29,5.39,5.39,0,0,0-2.51.5,3.33,3.33,0,0,0-1.41,1.36,5.81,5.81,0,0,0-.63,2,18.19,18.19,0,0,0-.16,2.45q0,3.13.1,6.14t.31,6.14q-1.52-.21-3.06-.34t-3.05-.13a25.51,25.51,0,0,0-2.82.16l-2.82.31a40.31,40.31,0,0,0,.44-4.6q.13-2.71.13-5.33v-3.39q0-2.61,0-4.36t-.08-3.21q-.05-1.46-.13-2.92t-.18-3.55q1.62.26,3,.37t2.77.1q1.36,0,2.58-.1a24.62,24.62,0,0,0,2.58-.37l-.42,7.1h.21a10.6,10.6,0,0,1,1-2.53,10.88,10.88,0,0,1,1.75-2.35,8.32,8.32,0,0,1,2.43-1.72,7,7,0,0,1,3-.65,10.83,10.83,0,0,1,1.15.05A4.14,4.14,0,0,1,162,131.39ZM49.49,23.9h0a17.29,17.29,0,0,1,18.7,23.25,15.59,15.59,0,0,1-3.66,5.94,15.23,15.23,0,0,0,7.68-10.16c2.58,8.34,5,19.23,10.48,32.45,6.23,15.14,19.65,21.07,30.2,23.32-22.25-1.53-32.23-8.08-49.68-21.25,10.67,12.92,23,20.29,32.61,22.79,37.14,9.62,59.68-11.57,64.23-15.44-13.14,17.95-32.29,24.77-51.58,22.61-16.3,4-40,5-58.68-12.29C19.33,65.94,28.7,27,49.49,23.9Zm85.18,99.56a5.26,5.26,0,0,1-.44,2.12,5.43,5.43,0,0,1-1.2,1.75,6,6,0,0,1-1.75,1.17,5,5,0,0,1-2.09.44,5.17,5.17,0,0,1-2.14-.44,5.8,5.8,0,0,1-3-3,5.13,5.13,0,0,1,0-4.18,5.8,5.8,0,0,1,3-3,5.19,5.19,0,0,1,2.14-.44,5.06,5.06,0,0,1,2.09.44,6.07,6.07,0,0,1,1.75,1.17,5.44,5.44,0,0,1,1.2,1.75A5.25,5.25,0,0,1,134.67,123.46ZM65.74,148.6a7.74,7.74,0,0,0,1.17,2.58A6,6,0,0,0,69,153a6.16,6.16,0,0,0,3,.68,8,8,0,0,0,1.83-.24,12.51,12.51,0,0,0,1.93-.63,11.83,11.83,0,0,0,1.8-.94A7.48,7.48,0,0,0,79,150.66l1.31,1.41q-.37.68-.63,1.2t-.47,1q-.21.52-.39,1.07t-.39,1.28a18.76,18.76,0,0,1-4.54,1.46,25.51,25.51,0,0,1-4.8.47A20.57,20.57,0,0,1,63.7,158a13.43,13.43,0,0,1-3.94-1.72,10.21,10.21,0,0,1-2.69-2.56,14.64,14.64,0,0,1-1.67-3,13.59,13.59,0,0,1-.86-3.08,19,19,0,0,1-.23-2.85,16.72,16.72,0,0,1,.84-5.33,11.79,11.79,0,0,1,2.56-4.36,12.35,12.35,0,0,1,4.33-3,16,16,0,0,1,6.21-1.1,14.86,14.86,0,0,1,5.93,1.2,11.39,11.39,0,0,1,4.67,3.71,11,11,0,0,1,1.93,4.78q.36,2.53.47,4.88l-2.25-.1q-1.2-.05-2.35-.05-5.64,0-11.28.16A12.11,12.11,0,0,0,65.74,148.6Zm51.1,4.46a10.29,10.29,0,0,1-3.32,3.16A14.9,14.9,0,0,1,109,158a23.15,23.15,0,0,1-5,.55q-2.51,0-5.61-.23t-6.08-.24a28.15,28.15,0,0,0-3,.16l-2.9.31q.16-2.56.24-4.18t.16-3q.08-1.38.1-2.82T87,145V132.8q0-1.31,0-2.27t0-2.06l-.31-7.31a58.16,58.16,0,0,0,7.31.47q2.51,0,4.86-.23t4.75-.23a34.47,34.47,0,0,1,4.44.31,15.37,15.37,0,0,1,4.49,1.28,9.38,9.38,0,0,1,3.47,2.72,7.32,7.32,0,0,1,1.38,4.67,8.53,8.53,0,0,1-.39,2.3,6.53,6.53,0,0,1-1.59,2.64,10.37,10.37,0,0,1-3.34,2.25,16.38,16.38,0,0,1-5.69,1.17v.21a27.5,27.5,0,0,1,4.41.76,12.25,12.25,0,0,1,3.76,1.65,8.22,8.22,0,0,1,2.64,2.87,8.9,8.9,0,0,1,1,4.39A8.32,8.32,0,0,1,116.84,153.07Zm9.16,5.17-2.77.31q.16-1.88.26-3.24t.13-2.85q0-1.49.05-3.45t0-5q0-3,0-4.8t-.08-3.13q-.05-1.3-.13-2.38t-.18-2.53a27.72,27.72,0,0,0,2.9.37q1.44.1,3,.1a36.48,36.48,0,0,0,5.9-.47q-.31,4.28-.39,7.86t-.08,6.08v2.82q0,1.2,0,2.61t.05,2.82q0,1.41.1,2.74t.13,2.43q-1.51-.21-3.05-.34t-3.05-.13A25,25,0,0,0,126,158.24Zm26.41,27.47q-1.15,0-2.1,0t-2.06.08q-1,.08-2.06.21-.32-1.21-.65-2.33t-.75-2.23l-2.1,0-2.1,0-1.67,0-1.67,0a21.65,21.65,0,0,0-.77,2.26q-.32,1.15-.67,2.3-.54-.13-1.07-.21a7.33,7.33,0,0,0-1.1-.08,7.1,7.1,0,0,0-1.07.08,7.86,7.86,0,0,0-1,.21l1.88-4.24q.45-1,1-2.22t1.13-2.69l1.23-3,1.28-3.12.8-2.06q.45-1.16.86-2.3t.77-2q.35-.91.51-1.29.54.13,1.12.21a8,8,0,0,0,1.12.08,8.25,8.25,0,0,0,1.15-.08q.57-.08,1.12-.21.35,1.15.89,2.69t1.16,3.25q.62,1.71,1.28,3.41t1.23,3.17l1.2,3,1,2.47q.48,1.16,1,2.34t1.2,2.61A13,13,0,0,0,152.42,185.7Zm21.55-5a8.85,8.85,0,0,1-1.32,2.76,6.52,6.52,0,0,1-2.2,1.93,6.36,6.36,0,0,1-3.08.72,7.82,7.82,0,0,1-2.41-.32,4,4,0,0,1-1.8-1.31v3.38q0,.83,0,1.74t.06,1.79c0,.58,0,1.14.08,1.66l.08,1.29-1.8-.21q-.81-.08-1.74-.08t-1.75.08q-.89.08-1.79.21.16-2.9.22-5.77t.06-5.58v-4.4q0-1.72,0-3.11t-.08-2.79q0-1.4-.14-3.41l1.72.19a15.55,15.55,0,0,0,1.72.1,16.91,16.91,0,0,0,3.12-.29l-.13,1.95a7,7,0,0,1,1.9-1.53,5.15,5.15,0,0,1,2.41-.51,6.68,6.68,0,0,1,3.11.7,7.15,7.15,0,0,1,2.29,1.87,8.09,8.09,0,0,1,1.42,2.68,10.35,10.35,0,0,1,.48,3.14A11.29,11.29,0,0,1,174,180.67Zm-4.07-23.11a10.24,10.24,0,0,1-3.63-3.08,13.13,13.13,0,0,1-2.06-4.33,18,18,0,0,1-.65-4.75,17.29,17.29,0,0,1,1.2-6.92,13.26,13.26,0,0,1,3-4.41,10.42,10.42,0,0,1,3.76-2.35A11.13,11.13,0,0,1,175,131a10.54,10.54,0,0,1,2.48.26,9.52,9.52,0,0,1,1.88.65,7.76,7.76,0,0,1,1.41.86l1.12.89q0-3.76-.1-7.42t-.26-7.42q1.46.26,2.77.37t2.82.1a37.19,37.19,0,0,0,6-.47q-.37,4.86-.42,10.18t-.05,10.18q0,3.45,0,6.19t.08,5q.05,2.27.16,4.23t.26,3.89q-1.36-.21-2.64-.34a25.64,25.64,0,0,0-2.58-.13q-1.36,0-2.66.13t-2.66.34q.16-1.57.16-3.19A13.24,13.24,0,0,1,181.2,157a6.84,6.84,0,0,1-1.7,1,7.18,7.18,0,0,1-1.93.52,18.47,18.47,0,0,1-2.32.13A11.52,11.52,0,0,1,169.9,157.56Zm24.73,23.11a8.85,8.85,0,0,1-1.32,2.76,6.52,6.52,0,0,1-2.2,1.93,6.36,6.36,0,0,1-3.08.72,7.82,7.82,0,0,1-2.41-.32,4,4,0,0,1-1.8-1.31v3.38q0,.83,0,1.74t.06,1.79c0,.58,0,1.14.08,1.66l.08,1.29-1.8-.21q-.81-.08-1.74-.08t-1.75.08q-.89.08-1.79.21.16-2.9.22-5.77t.06-5.58v-4.4q0-1.72,0-3.11t-.08-2.79q0-1.4-.14-3.41l1.72.19a15.55,15.55,0,0,0,1.72.1,16.91,16.91,0,0,0,3.12-.29l-.13,1.95a7,7,0,0,1,1.9-1.53,5.15,5.15,0,0,1,2.41-.51,6.68,6.68,0,0,1,3.11.7,7.15,7.15,0,0,1,2.29,1.87,8.09,8.09,0,0,1,1.42,2.68,10.35,10.35,0,0,1,.48,3.14A11.29,11.29,0,0,1,194.63,180.67Z"/><path d="M187.73,174.08a4.05,4.05,0,0,0-.64-1.48,1.43,1.43,0,0,0-1.23-.59,1.47,1.47,0,0,0-1.21.56A3.58,3.58,0,0,0,184,174a9.65,9.65,0,0,0-.25,1.83q0,1,0,1.85a20.32,20.32,0,0,0,.16,2.82,7,7,0,0,0,.45,1.75,2,2,0,0,0,.69.91,1.59,1.59,0,0,0,.88.25,1.71,1.71,0,0,0,1.63-1.24A12.08,12.08,0,0,0,188,178q0-.92,0-2A9.85,9.85,0,0,0,187.73,174.08Z"/><path d="M180.52,153.59a4.88,4.88,0,0,0,1-2,14.36,14.36,0,0,0,.47-3.05q.1-1.78.1-3.81a22.24,22.24,0,0,0-.76-6.92,2.7,2.7,0,0,0-2.64-2.06,2.41,2.41,0,0,0-1.85.76,5.14,5.14,0,0,0-1.1,2.06,14.4,14.4,0,0,0-.52,3.06q-.13,1.75-.13,3.79,0,1.83.13,3.45a12.73,12.73,0,0,0,.52,2.85,4.86,4.86,0,0,0,1.07,1.93,2.35,2.35,0,0,0,1.78.71A2.44,2.44,0,0,0,180.52,153.59Z"/></g></g></svg>