<svg xmlns="http://www.w3.org/2000/svg" viewBox="0 0 498.05 86.83"><title>subLogo</title><g id="Layer_2" data-name="Layer 2"><g id="Layer_1-2" data-name="Layer 1"><path d="M22.8,20.7a31.59,31.59,0,0,1,5.07.87,14.12,14.12,0,0,1,4.32,1.89,9.43,9.43,0,0,1,3,3.3,10.21,10.21,0,0,1,1.14,5,9.56,9.56,0,0,1-1.47,5.4,11.82,11.82,0,0,1-3.81,3.63,17.11,17.11,0,0,1-5.22,2,26.62,26.62,0,0,1-5.7.63q-2.88,0-6.45-.27t-7-.27a32.32,32.32,0,0,0-3.39.18L0,43.5q.18-2.94.27-4.8t.18-3.45Q.54,33.66.57,32t0-4.11v-14q0-1.5,0-2.61t0-2.37L.18.54a66.79,66.79,0,0,0,8.4.54q2.88,0,5.58-.27T19.62.54a39.67,39.67,0,0,1,5.1.36,17.68,17.68,0,0,1,5.16,1.47,10.79,10.79,0,0,1,4,3.12,8.42,8.42,0,0,1,1.59,5.37A9.83,9.83,0,0,1,35,13.5a7.51,7.51,0,0,1-1.83,3,11.9,11.9,0,0,1-3.84,2.58,18.81,18.81,0,0,1-6.54,1.35Zm-6.66-1.92A5.27,5.27,0,0,0,20.49,17a7.52,7.52,0,0,0,1.41-4.86,14.5,14.5,0,0,0-.24-2.7,5.06,5.06,0,0,0-.93-2.16,4.59,4.59,0,0,0-1.89-1.41,8.08,8.08,0,0,0-3.12-.51H14.4a1.78,1.78,0,0,0-.42.06q0,.78,0,1.65t0,2.31v9.36Zm-2.22,11.1v4.2q0,1.62,0,2.61t0,1.89q1.8,0,3.3-.12a5.15,5.15,0,0,0,2.58-.87,4.81,4.81,0,0,0,1.68-2.37,13.66,13.66,0,0,0,.6-4.56,8.86,8.86,0,0,0-1.41-5.37,5,5,0,0,0-4.29-1.89H13.92Z"/><path d="M57.51,33.93q.09,5.25.51,9.57a32,32,0,0,0-3.63-.42Q52.44,43,50.52,43t-3.78.18q-1.86.18-3.36.36.3-5,.45-9.9T44,23.7q0-1.2,0-3t0-3.63q0-1.92,0-3.69t0-3q0-2.1-.12-4.74T43.38.54Q44.94.72,47,.9t3.72.18q1.86,0,3.84-.15T58.08.54q-.3,4.32-.48,8.52t-.18,8.52v6Q57.42,28.68,57.51,33.93Z"/><path d="M95.1,24.78l2.73,4.53q1.47,2.43,3,4.89T104,39.06q1.56,2.4,3,4.44-2.1-.24-4.2-.39T98.58,43q-2,0-3.84.15T91,43.5q-2.4-4.68-4.83-9.27T80.82,25h-.18q0,4,.09,8.91t.33,9.63q-1.74-.24-3.48-.39T74,43q-1.68,0-3.51.15t-3.87.39q.3-3.06.51-7.29t.21-8.55q0-2,0-5t-.09-6.57q-.06-3.6-.18-7.59t-.3-8q2.1.3,4.17.42t4,.12q2.88,0,5.73-.27T86.34.54a44,44,0,0,1,6,.42,17.27,17.27,0,0,1,5.46,1.65,10.38,10.38,0,0,1,4,3.48,10.44,10.44,0,0,1,1.53,6,9.38,9.38,0,0,1-2.61,7.08,13.76,13.76,0,0,1-6.93,3.42ZM80.64,20.22l.57.09a5,5,0,0,0,.57,0h1.08q3.72,0,5.19-2.07a9.4,9.4,0,0,0,1.47-5.55,9.34,9.34,0,0,0-.69-4,5.71,5.71,0,0,0-1.71-2.19,5,5,0,0,0-2.25-.93,16,16,0,0,0-2.31-.18c-.32,0-.64,0-1,0l-1,.09Z"/><path d="M153.6,21.48a26,26,0,0,1-.75,6.27,23,23,0,0,1-2.13,5.55,20,20,0,0,1-3.3,4.47,15.15,15.15,0,0,1-4.32,3.09q-1.56.78-2.85,1.29a18.19,18.19,0,0,1-2.58.81,18.92,18.92,0,0,1-2.67.42q-1.38.12-3.06.12-3.12,0-6.18-.27T119.58,43q-2.16,0-4.29.18l-4.23.36q.3-4.86.48-9.33t.18-9.33q0-5.94-.12-11.88T111.18.54q1.8.24,3.6.39t3.6.15q3.06,0,6-.27t6-.27a38.55,38.55,0,0,1,7.68.72,20.77,20.77,0,0,1,7,2.94,16.3,16.3,0,0,1,3.78,3.33,20.22,20.22,0,0,1,4.29,8.94A24.92,24.92,0,0,1,153.6,21.48Zm-14.52.06a32.65,32.65,0,0,0-.9-8.58,12,12,0,0,0-2.4-4.83A6.83,6.83,0,0,0,132.3,6a17.51,17.51,0,0,0-4.14-.48,25.22,25.22,0,0,0-2.88.18q-.12,2.58-.18,4.95T125,15.72q0,2.34,0,5.31t0,6.09q0,3.06,0,6t0,5.31a7.17,7.17,0,0,0,.9.06h2.76a10.7,10.7,0,0,0,5-1A7.7,7.7,0,0,0,137,34.32,15.2,15.2,0,0,0,138.63,29,54.34,54.34,0,0,0,139.08,21.54Z"/><path d="M179.43,18.18q.93-2.88,1.8-5.7t1.68-5.76q.81-2.94,1.65-6.18a16.58,16.58,0,0,0,4.14.54A18.1,18.1,0,0,0,190.77,1a12.15,12.15,0,0,0,2.07-.42q.6,3,1.41,6.33T196,13.53q1,3.33,2,6.57t2.13,6.06l.6-1.92q.42-1.32.9-3t1-3.51q.51-1.83,1-3.69t1-3.54q.66-2.52,1.2-5t1.2-5a18.31,18.31,0,0,0,4,.54A14.79,14.79,0,0,0,213,1a11.28,11.28,0,0,0,1.83-.42q-.84,2-1.89,4.77t-2.1,5.85q-1.05,3.06-2,6t-1.71,5.25q-1.2,3.6-2.07,6.33t-1.56,5.1q-.69,2.37-1.32,4.65t-1.35,5q-1.2-.24-2.19-.39a14.79,14.79,0,0,0-2.19-.15,13,13,0,0,0-2.1.15q-.9.15-2.1.39-1.2-4-2.52-7.89t-2.64-7.89q-.66-1.92-1.23-3.87T184.62,20l-.9,2.46q-.42,1.14-.81,2.34T182,27.33q-.48,1.35-1.08,3.09t-1.17,3.48q-.63,1.8-1.17,3.54t-1,3.3q-.45,1.56-.69,2.76-1-.24-2.13-.39a16.51,16.51,0,0,0-2.19-.15,19.65,19.65,0,0,0-2.28.15,21,21,0,0,0-2.28.39q-.78-3.42-1.71-6.72t-2-6.72q-1.38-4.68-2.85-9.36t-3-9.36Q156.9,5.94,155,.54q1.92.3,4,.42t3.63.12q2,0,4-.18l3.69-.36q1.2,6.48,2.82,12.72T176.76,26l.66-1.92Q178.5,21.06,179.43,18.18Z"/><path d="M219.48,23.7q0-.78,0-2.67t0-4q0-2.16,0-4t0-2.58q0-2-.12-4.5t-.42-5.4q1.62.18,3.63.36t3.75.18q1.68,0,3.75-.15t3.63-.39q-.18,2.1-.3,4.38t-.21,4.53q-.09,2.25-.12,4.32t0,3.81q1.38.06,3.06.09t3.48,0q1.56,0,3.3-.06t3.42-.06q0-1.8,0-3.93T246,9.3q-.09-2.22-.21-4.47t-.3-4.29q1.62.18,3.66.36t3.72.18q1.68,0,3.75-.15t3.63-.39q-.36,3.78-.51,7.8t-.15,9.36q0,4,.06,7.35t.15,6.36q.09,3,.18,5.94t.21,6.15a56.42,56.42,0,0,0-7.86-.54q-1.74,0-3.45.15t-3.45.39q.24-2,.39-4.77t.21-5.64q.06-2.85.09-5.4t0-4.11q-1.62,0-3.3-.06t-3.36-.06l-3.3,0q-1.74,0-3.3.09,0,1.62,0,4.17t.09,5.4q.06,2.85.18,5.61t.3,4.74q-1.86-.3-3.72-.42T226,43q-2.28,0-4,.15t-3.24.39l.24-3q.12-1.32.21-3.33t.12-4.32q0-2.31.06-4.71T219.48,23.7Z"/><path d="M272.34,43.5q-1-.24-2-.39a13.94,13.94,0,0,0-2.07-.15,13.51,13.51,0,0,0-2,.15,14.91,14.91,0,0,0-1.83.39l3.54-8q.84-1.8,1.86-4.17t2.13-5.07l2.31-5.64,2.4-5.88q.66-1.68,1.5-3.87t1.62-4.32q.78-2.13,1.44-3.84t1-2.43q1,.24,2.1.39a15.15,15.15,0,0,0,2.1.15,15.6,15.6,0,0,0,2.16-.15q1.08-.15,2.1-.39.66,2.16,1.68,5.07t2.19,6.12q1.17,3.21,2.4,6.42t2.31,6q1.26,3.18,2.25,5.64t1.89,4.65q.9,2.19,1.89,4.41t2.25,4.92a24.33,24.33,0,0,0-3.9-.45q-2.16-.09-4-.09t-3.87.15q-1.95.15-3.87.39-.6-2.28-1.23-4.38t-1.41-4.2q-2,0-4,0t-4,0q-1.56,0-3.15,0t-3.15,0a40.85,40.85,0,0,0-1.44,4.26Q273,41.34,272.34,43.5Zm4.44-14q.66.06,1.32.06H286q.66,0,1.32-.06l-5.16-14Z"/><path d="M315.12,6.78q-2.88,0-5.64.15T304,7.38A15.71,15.71,0,0,0,304.32,4a11,11,0,0,0-.12-1.59q-.12-.81-.24-1.83,4.5.42,9,.48t9,.06q4.32,0,8.82-.06T340,.54q-.12.72-.24,1.62a15.55,15.55,0,0,0-.12,2,12.28,12.28,0,0,0,.12,1.74c.08.56.16,1,.24,1.44q-2.76-.3-5.52-.45t-5.64-.15q-.12,2-.15,4.53t0,5.13v3.24q0,3.48,0,6.54t.06,5.94q0,2.88.15,5.64t.3,5.7q-3.12-.3-4.89-.42T321.66,43a35.68,35.68,0,0,0-4.23.21l-2.73.33q.18-1.68.3-3.78t.21-4.44q.09-2.34.12-4.74t0-4.62V18q0-2.28-.06-5.25T315.12,6.78Z"/><path d="M371.49,7.08a10,10,0,0,0-5.67-1.62,10.4,10.4,0,0,0-5.58,1.38,10.79,10.79,0,0,0-3.57,3.6,15.54,15.54,0,0,0-1.92,5,31.13,31.13,0,0,0-.63,5.61,44.7,44.7,0,0,0,.42,6,17.6,17.6,0,0,0,1.65,5.55,10.68,10.68,0,0,0,3.51,4,10.16,10.16,0,0,0,5.94,1.59,13.41,13.41,0,0,0,3.75-.48,14.16,14.16,0,0,0,3-1.26,19.63,19.63,0,0,0,2.52-1.68q1.14-.9,2.1-1.8l1.86,1q-.54,1.74-1,3.51t-.9,3.57q-2.7,1-6.09,1.83a32,32,0,0,1-7.89.87,28.37,28.37,0,0,1-9-1.41,20.68,20.68,0,0,1-7.35-4.2,20,20,0,0,1-4.92-6.78,21.73,21.73,0,0,1-1.8-9,22.63,22.63,0,0,1,1.92-9.57,20.54,20.54,0,0,1,5.25-7.05,22.5,22.5,0,0,1,7.83-4.35A30.73,30.73,0,0,1,364.5,0a33.93,33.93,0,0,1,7.29.81,48.78,48.78,0,0,1,7.11,2.13q-.18,1-.45,2t-.51,2q-.3,1.26-.48,2.49l-.36,2.49h-2.4A7.75,7.75,0,0,0,371.49,7.08Z"/><path d="M385.86,23.7q0-.78,0-2.67t0-4q0-2.16,0-4t0-2.58q0-2-.12-4.5T385.2.54q1.62.18,3.63.36t3.75.18q1.68,0,3.75-.15T400,.54q-.18,2.1-.3,4.38t-.21,4.53q-.09,2.25-.12,4.32t0,3.81q1.38.06,3.06.09t3.48,0q1.56,0,3.3-.06t3.42-.06q0-1.8,0-3.93t-.12-4.35q-.09-2.22-.21-4.47T411.9.54q1.62.18,3.66.36t3.72.18q1.68,0,3.75-.15t3.63-.39q-.36,3.78-.51,7.8T426,17.7q0,4,.06,7.35t.15,6.36q.09,3,.18,5.94t.21,6.15a56.42,56.42,0,0,0-7.86-.54q-1.74,0-3.45.15t-3.45.39q.24-2,.39-4.77t.21-5.64q.06-2.85.09-5.4t0-4.11q-1.62,0-3.3-.06t-3.36-.06l-3.3,0q-1.74,0-3.3.09,0,1.62,0,4.17t.09,5.4q.06,2.85.18,5.61t.3,4.74q-1.86-.3-3.72-.42T392.4,43q-2.28,0-4,.15t-3.24.39l.24-3q.12-1.32.21-3.33t.12-4.32q0-2.31.06-4.71T385.86,23.7Z"/><path d="M449.37,33.93q.09,5.25.51,9.57a32,32,0,0,0-3.63-.42Q444.3,43,442.38,43t-3.78.18q-1.86.18-3.36.36.3-5,.45-9.9t.15-9.9q0-1.2,0-3t0-3.63q0-1.92,0-3.69t0-3q0-2.1-.12-4.74T435.24.54q1.56.18,3.6.36t3.72.18q1.86,0,3.84-.15t3.54-.39q-.3,4.32-.48,8.52t-.18,8.52v6Q449.28,28.68,449.37,33.93Z"/><path d="M467.51,20.37q-1.32-1.35-2.58-2.73v6.24q0,1.68.09,4.14t.21,5.16q.12,2.7.27,5.4t.27,4.92q-.84-.24-1.65-.39a11,11,0,0,0-2-.15,12.92,12.92,0,0,0-2,.15q-1,.15-2.1.39.24-2.58.45-5.46t.36-5.82q.15-2.94.24-5.82t.09-5.46q0-5.28-.09-10.2T458.75.54q1.26.24,2.55.39a22,22,0,0,0,2.55.15,17.9,17.9,0,0,0,2.34-.15q1.14-.15,2.28-.39,1.68,2.22,3.63,4.56T476,9.6q1.92,2.16,3.66,4.08L482.69,17Q484,18.36,485,19.5t2,2.25l2,2.25q1,1.14,2.22,2.4,0-2.7-.09-5.25T491,15.9q-.06-2.22-.12-4.17t-.15-3.81q-.09-1.86-.18-3.66T490.38.54a19.13,19.13,0,0,0,2.1.42,14.94,14.94,0,0,0,2,.12A13.13,13.13,0,0,0,496.31,1a9.87,9.87,0,0,0,1.74-.42q-.12,2.28-.3,4.56t-.3,4.56q-.24,6.18-.36,12.12T497,33.9q0,2.4.06,4.8t.18,4.8a18.11,18.11,0,0,0-2.28-.39,23.58,23.58,0,0,0-2.64-.15,16.2,16.2,0,0,0-2.52.18q-1.14.18-2.1.36-2-2.46-3.87-4.62t-3.6-4.17l-3.45-3.93-3.42-3.9L470,23.1Q468.83,21.72,467.51,20.37Z"/><path d="M165.68,55.85q0-1.65-.06-3.24t-.14-3.24l1.89.09q.94,0,1.89,0t1.89-.06q.94-.06,1.89-.06a10.93,10.93,0,0,1,3.76.58,6.56,6.56,0,0,1,2.56,1.64,6.43,6.43,0,0,1,1.46,2.6,12,12,0,0,1,.46,3.46,9.29,9.29,0,0,1-.86,4.21,8,8,0,0,1-2.2,2.76,8.21,8.21,0,0,1-2.95,1.49,11.78,11.78,0,0,1-3.09.44l-1.67,0-1.67,0h-1.68q-.82,0-1.67,0,.07-1.55.14-3.15t.06-3.25Zm2,4.3q0,2.7.15,5.3a9.14,9.14,0,0,0,1.42.19q.9.06,1.85.06a11.91,11.91,0,0,0,2.75-.33,6,6,0,0,0,2.46-1.23,6.55,6.55,0,0,0,1.78-2.46,10.11,10.11,0,0,0,.69-4,10.09,10.09,0,0,0-.54-3.57,5.44,5.44,0,0,0-1.47-2.21,5.24,5.24,0,0,0-2.24-1.12,12.22,12.22,0,0,0-2.85-.31q-1.12,0-2.1.08t-1.75.17q-.07,1.2-.11,2.51t0,2.66Z"/><path d="M183.55,61A7.3,7.3,0,0,1,185,56.17a5.24,5.24,0,0,1,4.26-1.75,5.78,5.78,0,0,1,2.29.41,4.78,4.78,0,0,1,1.61,1.1,4.35,4.35,0,0,1,1,1.61,6.14,6.14,0,0,1,.31,2c0,.17,0,.33,0,.49s0,.32,0,.49l-2.68,0-2.67,0-1.64,0-1.64,0a2,2,0,0,0,0,.38v.33A5.66,5.66,0,0,0,186,63a4.13,4.13,0,0,0,.84,1.46,4,4,0,0,0,1.35,1,4.44,4.44,0,0,0,1.85.36,4,4,0,0,0,1-.14,5.77,5.77,0,0,0,1-.37,5.6,5.6,0,0,0,.94-.56,4.78,4.78,0,0,0,.76-.7l.13.08-.15,1.23a6.91,6.91,0,0,1-1.86,1,6.43,6.43,0,0,1-2.31.42,7,7,0,0,1-2.46-.41,5.47,5.47,0,0,1-1.92-1.2A5.39,5.39,0,0,1,184,63.33,6.1,6.1,0,0,1,183.55,61Zm5.78-5.77a2.75,2.75,0,0,0-1.56.42,3.65,3.65,0,0,0-1,1.06,5,5,0,0,0-.62,1.4,7.35,7.35,0,0,0-.26,1.44l1.61.05,1.64,0,1.67,0,1.65-.05a9.6,9.6,0,0,0-.11-1.42,4.44,4.44,0,0,0-.45-1.4,3,3,0,0,0-.94-1.08A2.67,2.67,0,0,0,189.33,55.23Z"/><path d="M200.55,66.55q-1.15-2.95-2.31-5.9t-2.54-6l.63.09a5.06,5.06,0,0,0,.63,0,4.09,4.09,0,0,0,.55,0l.55-.09q.77,2.48,1.69,4.86t2,4.89q.5-1,1-2.21t1-2.46q.49-1.28,1-2.56l.91-2.51a2.47,2.47,0,0,0,1.55,0q-1.35,3-2.65,6t-2.37,5.9a5.89,5.89,0,0,0-.78,0A6.47,6.47,0,0,0,200.55,66.55Z"/><path d="M208.25,61a7.3,7.3,0,0,1,1.46-4.83A5.24,5.24,0,0,1,214,54.42a5.78,5.78,0,0,1,2.29.41,4.78,4.78,0,0,1,1.61,1.1,4.35,4.35,0,0,1,1,1.61,6.14,6.14,0,0,1,.31,2c0,.17,0,.33,0,.49s0,.32,0,.49l-2.68,0-2.67,0-1.64,0-1.64,0a2,2,0,0,0,0,.38v.33a5.66,5.66,0,0,0,.29,1.82,4.13,4.13,0,0,0,.84,1.46,4,4,0,0,0,1.35,1,4.44,4.44,0,0,0,1.85.36,4,4,0,0,0,1-.14,5.77,5.77,0,0,0,1-.37,5.6,5.6,0,0,0,.94-.56,4.78,4.78,0,0,0,.76-.7l.13.08-.15,1.23a6.91,6.91,0,0,1-1.86,1,6.43,6.43,0,0,1-2.31.42,7,7,0,0,1-2.46-.41,5.47,5.47,0,0,1-1.92-1.2,5.39,5.39,0,0,1-1.25-1.86A6.1,6.1,0,0,1,208.25,61ZM214,55.23a2.75,2.75,0,0,0-1.56.42,3.65,3.65,0,0,0-1,1.06,5,5,0,0,0-.62,1.4,7.35,7.35,0,0,0-.26,1.44l1.61.05,1.64,0,1.67,0,1.65-.05a9.6,9.6,0,0,0-.11-1.42,4.44,4.44,0,0,0-.45-1.4,3,3,0,0,0-.94-1.08A2.67,2.67,0,0,0,214,55.23Z"/><path d="M222.42,53q0-1,0-2t-.06-1.86q0-.89-.09-1.51a5.12,5.12,0,0,0,2.25,0c0,.42-.06.92-.09,1.51s0,1.21-.06,1.86,0,1.31,0,2,0,1.28,0,1.85v4.52q0,.85,0,1.85t0,2q0,1,.06,1.85c0,.58.05,1.07.09,1.45q-.58,0-1.12,0t-1.12,0q0-.57.09-1.45t.06-1.85q0-1,0-2t0-1.85V54.9Q222.43,54.05,222.42,53Z"/><path d="M227.7,60.65a7,7,0,0,1,.54-2.89,5.34,5.34,0,0,1,1.41-1.93,5.58,5.58,0,0,1,2-1.07,7.13,7.13,0,0,1,4.34,0,5.61,5.61,0,0,1,2,1.07,5.36,5.36,0,0,1,1.41,1.93,8,8,0,0,1,0,5.77,5.36,5.36,0,0,1-1.41,1.92,5.15,5.15,0,0,1-2,1,8,8,0,0,1-4.34,0,5.13,5.13,0,0,1-2-1,5.33,5.33,0,0,1-1.41-1.92A7,7,0,0,1,227.7,60.65Zm2.2,0a10.7,10.7,0,0,0,.19,2,5.4,5.4,0,0,0,.64,1.74,3.41,3.41,0,0,0,1.2,1.21,4,4,0,0,0,3.7,0,3.41,3.41,0,0,0,1.2-1.21,5.4,5.4,0,0,0,.64-1.74,11,11,0,0,0,0-4,5.4,5.4,0,0,0-.64-1.74,3.42,3.42,0,0,0-1.2-1.21,4,4,0,0,0-3.7,0,3.42,3.42,0,0,0-1.2,1.21,5.4,5.4,0,0,0-.64,1.74A10.7,10.7,0,0,0,229.9,60.65Z"/><path d="M242.35,62q0-.85,0-1.85t0-2q0-1-.06-1.89t-.09-1.55a5.12,5.12,0,0,0,2.25,0q-.1.65-.15,1.25t0,1.2h0a5.08,5.08,0,0,1,.5-.86,4.32,4.32,0,0,1,.84-.87,4.5,4.5,0,0,1,1.24-.69,4.62,4.62,0,0,1,1.65-.28,5.1,5.1,0,0,1,1.88.36A4.52,4.52,0,0,1,252,55.9a5.61,5.61,0,0,1,1.15,1.91,7.84,7.84,0,0,1,.44,2.76,7.39,7.39,0,0,1-.47,2.77,5.89,5.89,0,0,1-1.24,1.95,4.72,4.72,0,0,1-1.74,1.14,5.57,5.57,0,0,1-1.95.36,4.05,4.05,0,0,1-3.93-2.37h0V66q0,.8,0,1.79t0,2q0,1,.06,1.86t.09,1.51a5.12,5.12,0,0,0-2.25,0q0-.63.09-1.51t.06-1.86q0-1,0-2t0-1.79Zm9-1.4a8.23,8.23,0,0,0-.31-2.47,4.64,4.64,0,0,0-.8-1.56,2.59,2.59,0,0,0-1.11-.81,3.6,3.6,0,0,0-1.22-.23,3.28,3.28,0,0,0-1.71.42A3.45,3.45,0,0,0,245.05,57a5,5,0,0,0-.65,1.67,10,10,0,0,0-.2,2q0,5.2,3.65,5.2a2.9,2.9,0,0,0,1.56-.41,3.32,3.32,0,0,0,1.1-1.15,5.7,5.7,0,0,0,.65-1.73A10,10,0,0,0,251.38,60.55Z"/><path d="M255.5,61A7.3,7.3,0,0,1,257,56.17a5.24,5.24,0,0,1,4.26-1.75,5.78,5.78,0,0,1,2.29.41,4.78,4.78,0,0,1,1.61,1.1,4.35,4.35,0,0,1,1,1.61,6.14,6.14,0,0,1,.31,2c0,.17,0,.33,0,.49s0,.32,0,.49l-2.68,0-2.67,0-1.64,0-1.64,0a2,2,0,0,0,0,.38v.33A5.66,5.66,0,0,0,258,63a4.13,4.13,0,0,0,.84,1.46,4,4,0,0,0,1.35,1,4.44,4.44,0,0,0,1.85.36,4,4,0,0,0,1-.14,5.77,5.77,0,0,0,1-.37,5.6,5.6,0,0,0,.94-.56,4.78,4.78,0,0,0,.76-.7l.13.08-.15,1.23a6.91,6.91,0,0,1-1.86,1,6.43,6.43,0,0,1-2.31.42,7,7,0,0,1-2.46-.41,5.47,5.47,0,0,1-1.92-1.2,5.39,5.39,0,0,1-1.25-1.86A6.1,6.1,0,0,1,255.5,61Zm5.78-5.77a2.75,2.75,0,0,0-1.56.42,3.65,3.65,0,0,0-1,1.06,5,5,0,0,0-.62,1.4,7.35,7.35,0,0,0-.26,1.44l1.61.05,1.64,0,1.67,0,1.65-.05a9.6,9.6,0,0,0-.11-1.42,4.44,4.44,0,0,0-.45-1.4,3,3,0,0,0-.94-1.08A2.67,2.67,0,0,0,261.28,55.23Z"/><path d="M277.48,64.17a6.12,6.12,0,0,1-.54.86,4.36,4.36,0,0,1-.85.86,4.28,4.28,0,0,1-1.21.65,4.83,4.83,0,0,1-1.62.25,5.52,5.52,0,0,1-1.86-.32,4.19,4.19,0,0,1-1.62-1.06,5.47,5.47,0,0,1-1.15-1.9,7.94,7.94,0,0,1-.44-2.79,7.37,7.37,0,0,1,.48-2.77,6,6,0,0,1,1.24-2,5,5,0,0,1,1.72-1.17,5.15,5.15,0,0,1,1.94-.39,3.86,3.86,0,0,1,3.85,2.5h0V54.48q0-.95,0-1.91t0-1.84q0-.88,0-1.65t0-1.37l.57.09a4.09,4.09,0,0,0,.55,0,3.81,3.81,0,0,0,.54,0l.59-.09q-.08.8-.12,2.31t-.09,3.34q0,1.83-.06,3.75t0,3.52q0,1.72,0,3.1t0,2.82q-.5,0-1,0c-.3,0-.62,0-1,0l.08-2.37Zm-7.1-3.3a8.26,8.26,0,0,0,.31,2.48,4.66,4.66,0,0,0,.8,1.56,2.58,2.58,0,0,0,1.11.81,3.6,3.6,0,0,0,1.22.23,2.85,2.85,0,0,0,1.67-.49,4,4,0,0,0,1.16-1.27,6,6,0,0,0,.67-1.79,9.6,9.6,0,0,0,.21-2,6.14,6.14,0,0,0-.92-3.66,3.16,3.16,0,0,0-2.72-1.26,2.89,2.89,0,0,0-1.56.41,3.31,3.31,0,0,0-1.1,1.15,5.73,5.73,0,0,0-.65,1.73A10,10,0,0,0,270.38,60.88Z"/><path d="M300.83,60.3a7.68,7.68,0,0,1-.44,2.65,6.37,6.37,0,0,1-1.2,2.06,5.21,5.21,0,0,1-1.8,1.32,5.43,5.43,0,0,1-2.24.46,4.53,4.53,0,0,1-2.16-.51A4,4,0,0,1,291.53,65q-.9.73-1.67,1.45h-.45q0-.6.09-1.45t.06-1.81q0-1,0-2t0-1.85V54.9q0-.85,0-1.85t0-2q0-1-.06-1.86t-.09-1.51a6.71,6.71,0,0,0,1.13.13,4.66,4.66,0,0,0,.58,0l.65-.09q-.07.5-.12,1.59t-.07,2.42q0,1.34-.05,2.75t0,2.56h0a6,6,0,0,1,1.88-2,4.48,4.48,0,0,1,2.38-.62,4.86,4.86,0,0,1,2.25.49,4.68,4.68,0,0,1,1.58,1.29,5.51,5.51,0,0,1,.94,1.86A7.9,7.9,0,0,1,300.83,60.3Zm-2.2-.07a6.62,6.62,0,0,0-.29-2,4.87,4.87,0,0,0-.75-1.49,3.18,3.18,0,0,0-1.08-.91,2.74,2.74,0,0,0-1.26-.31,4,4,0,0,0-1.49.29,3,3,0,0,0-1.24.95,5.07,5.07,0,0,0-.84,1.73,9.39,9.39,0,0,0-.31,2.61q0,5,3.65,5a2.61,2.61,0,0,0,1.42-.41,3.71,3.71,0,0,0,1.14-1.19,6.47,6.47,0,0,0,.76-1.85A9.72,9.72,0,0,0,298.63,60.23Z"/><path d="M307,66.58l-.71-1.75q-.44-1.08-.94-2.26l-1-2.42-1-2.33-.81-1.91L302,54.67l.6.09a4.1,4.1,0,0,0,1.1,0l.6-.09q.77,2.4,1.73,4.75t2,4.85q1-2.2,2-4.7t1.71-4.9a2.79,2.79,0,0,0,1.65,0q-.18.35-.56,1.19l-.93,2q-.54,1.16-1.17,2.58l-1.3,2.9-1.31,3q-.65,1.46-1.2,2.77t-1,2.38q-.41,1.06-.61,1.69a2.95,2.95,0,0,0-1.7,0A50.81,50.81,0,0,0,307,66.58Z"/><path d="M321.88,68.84a3,3,0,0,0,1-1.36,7.6,7.6,0,0,0,.41-2.08q.09-1.2.09-2.67V55.85q0-1.65-.06-3.24t-.14-3.24l.63.09a4.81,4.81,0,0,0,1.2,0l.63-.09q-.08,1.65-.14,3.24t-.06,3.24q0,1.13,0,2.32t0,2.36q0,1.16,0,2.24t0,2a5.66,5.66,0,0,1-.36,2.06,5.13,5.13,0,0,1-1,1.66,4.84,4.84,0,0,1-1.61,1.14,5,5,0,0,1-2,.41l-.2-.7A2.65,2.65,0,0,0,321.88,68.84Z"/><path d="M328.4,60.65a7,7,0,0,1,.54-2.89,5.35,5.35,0,0,1,1.41-1.93,5.58,5.58,0,0,1,2-1.07,7.13,7.13,0,0,1,4.34,0,5.62,5.62,0,0,1,2,1.07A5.36,5.36,0,0,1,340,57.76a8,8,0,0,1,0,5.77,5.36,5.36,0,0,1-1.41,1.92,5.15,5.15,0,0,1-2,1,8,8,0,0,1-4.34,0,5.13,5.13,0,0,1-2-1,5.35,5.35,0,0,1-1.41-1.92A7,7,0,0,1,328.4,60.65Zm2.2,0a10.7,10.7,0,0,0,.19,2,5.4,5.4,0,0,0,.64,1.74,3.42,3.42,0,0,0,1.2,1.21,4,4,0,0,0,3.7,0,3.41,3.41,0,0,0,1.2-1.21,5.4,5.4,0,0,0,.64-1.74,11,11,0,0,0,0-4,5.4,5.4,0,0,0-.64-1.74,3.42,3.42,0,0,0-1.2-1.21,4,4,0,0,0-3.7,0,3.42,3.42,0,0,0-1.2,1.21,5.4,5.4,0,0,0-.64,1.74A10.7,10.7,0,0,0,330.6,60.65Z"/><path d="M343.52,53q0-1,0-2t-.06-1.86q0-.89-.09-1.51a5.13,5.13,0,0,0,2.25,0c0,.42-.06.92-.09,1.5s0,1.2-.06,1.84,0,1.29,0,1.94,0,1.25,0,1.8v1.9h0A5.23,5.23,0,0,1,347.1,55a4.42,4.42,0,0,1,2.33-.59,5.22,5.22,0,0,1,1.41.2,3.39,3.39,0,0,1,1.29.69,3.56,3.56,0,0,1,.94,1.33,5.43,5.43,0,0,1,.36,2.14q0,1.08,0,2.21t0,2.41V65q0,.4,0,.79t0,.74q-.5,0-1,0t-1,0q0-1.3.11-2.67t.06-2.83V59.52a4.67,4.67,0,0,0-.72-2.84,2.37,2.37,0,0,0-2-1,3,3,0,0,0-2.56,1.07,4.93,4.93,0,0,0-.81,3q0,.7,0,1.63t0,1.86q0,.94.06,1.81c0,.58.05,1.06.09,1.42q-.58,0-1.12,0t-1.12,0q0-.57.09-1.45t.06-1.85q0-1,0-2t0-1.85V54.9Q343.53,54.05,343.52,53Z"/><path d="M364.65,56.69a2.37,2.37,0,0,0-2-1,3,3,0,0,0-2.56,1.07,4.93,4.93,0,0,0-.81,3V62q0,1.13,0,2.36t.16,2.24q-.57,0-1.12,0t-1.12,0q.13-1,.16-2.24t0-2.36v-2.6q0-1.12,0-2.36t-.16-2.31a6.66,6.66,0,0,0,1.13.13,2.82,2.82,0,0,0,.44,0l.56-.09q-.07,1-.07,2h0A5.21,5.21,0,0,1,361,55a4.42,4.42,0,0,1,2.33-.59,5.21,5.21,0,0,1,1.41.2,3.39,3.39,0,0,1,1.29.69,3.56,3.56,0,0,1,.94,1.33,5.43,5.43,0,0,1,.36,2.14q0,1.08,0,2.21t-.05,2.41V65q0,.4,0,.79c0,.26,0,.5,0,.74-.33,0-.68,0-1.05,0s-.69,0-1,0q0-1.3.11-2.67t.06-2.83V59.52A4.68,4.68,0,0,0,364.65,56.69Z"/><path d="M371.38,55.88a7.09,7.09,0,0,1,2.08-1.15,6.43,6.43,0,0,1,1.95-.3,5,5,0,0,1,1.65.26,3.59,3.59,0,0,1,1.28.75,3.48,3.48,0,0,1,.82,1.17,3.74,3.74,0,0,1,.3,1.51q0,1.43-.05,2.84t0,3q0,.3,0,.64a1.87,1.87,0,0,0,.11.6,1.14,1.14,0,0,0,.29.44.8.8,0,0,0,.56.17h.26a.61.61,0,0,0,.26-.09v.55a3,3,0,0,1-.69.2,5.13,5.13,0,0,1-.91.07,1.69,1.69,0,0,1-1.23-.41,1.7,1.7,0,0,1-.5-1.06,6.72,6.72,0,0,1-1.77,1.33,4.9,4.9,0,0,1-2.15.42,4.36,4.36,0,0,1-1.22-.17,2.79,2.79,0,0,1-1.06-.58,3.14,3.14,0,0,1-.75-1,2.78,2.78,0,0,1-.29-1.29,2.93,2.93,0,0,1,.94-2.32,5.11,5.11,0,0,1,2.59-1.1q1.35-.22,2.11-.39a5.27,5.27,0,0,0,1.13-.34.76.76,0,0,0,.44-.41,2.08,2.08,0,0,0,.08-.61,4.71,4.71,0,0,0-.15-1.2,2.78,2.78,0,0,0-.47-1,2.41,2.41,0,0,0-.85-.69,2.83,2.83,0,0,0-1.28-.26,4,4,0,0,0-1.86.45,3,3,0,0,0-1.29,1.25h-.27Zm6.17,4.45a6.31,6.31,0,0,1-1,.25l-1.14.21a10.72,10.72,0,0,0-1.14.29,3.71,3.71,0,0,0-1,.47,2.32,2.32,0,0,0-.7.75,2.67,2.67,0,0,0,.41,2.93,2.21,2.21,0,0,0,1.5.6,3.07,3.07,0,0,0,1.74-.53,3.94,3.94,0,0,0,1.21-1.22Z"/><path d="M385.9,51.33q-.07.95-.11,1.86T385.7,55h1q.75,0,1.63-.06a1,1,0,0,0,0,.27v.52a.88.88,0,0,0,0,.25l-.67,0h-2a7.59,7.59,0,0,0-.06.8q0,.7-.06,1.66t0,2q0,1.05,0,1.88t0,1.38a4.09,4.09,0,0,0,.24,1.21,2,2,0,0,0,.6.86,1.78,1.78,0,0,0,1.15.33,3.82,3.82,0,0,0,.54-.05,4.15,4.15,0,0,0,.59-.12v.6l-.94.19a4.59,4.59,0,0,1-1,.11,3.11,3.11,0,0,1-2.33-.77,3.15,3.15,0,0,1-.75-2.27q0-.68,0-1.46t.06-1.73q0-.94.06-2.08t0-2.54h-1.22l-.48,0q0-.15,0-.29c0-.09,0-.19,0-.29s0-.17,0-.25,0-.17,0-.25q1.13.08,1.65.08,0-.5,0-1.25t-.06-1.55l2.07-.87Z"/><path d="M390.83,55.88a7.09,7.09,0,0,1,2.08-1.15,6.43,6.43,0,0,1,1.95-.3,5,5,0,0,1,1.65.26,3.59,3.59,0,0,1,1.28.75,3.48,3.48,0,0,1,.82,1.17,3.74,3.74,0,0,1,.3,1.51q0,1.43-.05,2.84t0,3q0,.3,0,.64a1.87,1.87,0,0,0,.11.6,1.14,1.14,0,0,0,.29.44.8.8,0,0,0,.56.17H400a.61.61,0,0,0,.26-.09v.55a3,3,0,0,1-.69.2,5.13,5.13,0,0,1-.91.07,1.69,1.69,0,0,1-1.23-.41A1.7,1.7,0,0,1,397,65a6.72,6.72,0,0,1-1.77,1.33,4.9,4.9,0,0,1-2.15.42,4.36,4.36,0,0,1-1.22-.17,2.79,2.79,0,0,1-1.06-.58,3.14,3.14,0,0,1-.75-1,2.78,2.78,0,0,1-.29-1.29,2.93,2.93,0,0,1,.94-2.32,5.11,5.11,0,0,1,2.59-1.1q1.35-.22,2.11-.39a5.27,5.27,0,0,0,1.13-.34.76.76,0,0,0,.44-.41,2.08,2.08,0,0,0,.08-.61,4.71,4.71,0,0,0-.15-1.2,2.78,2.78,0,0,0-.47-1,2.41,2.41,0,0,0-.85-.69,2.83,2.83,0,0,0-1.28-.26,4,4,0,0,0-1.86.45,3,3,0,0,0-1.29,1.25h-.27ZM397,60.33a6.31,6.31,0,0,1-1,.25l-1.14.21a10.72,10.72,0,0,0-1.14.29,3.71,3.71,0,0,0-1,.47,2.32,2.32,0,0,0-.7.75,2.67,2.67,0,0,0,.41,2.93,2.21,2.21,0,0,0,1.5.6,3.07,3.07,0,0,0,1.74-.53,3.94,3.94,0,0,0,1.21-1.22Z"/><path d="M410.5,56.69a2.37,2.37,0,0,0-2-1,3,3,0,0,0-2.56,1.07,4.93,4.93,0,0,0-.81,3V62q0,1.13,0,2.36t.16,2.24q-.58,0-1.12,0t-1.12,0q.12-1,.16-2.24t0-2.36v-2.6q0-1.12,0-2.36t-.16-2.31a6.64,6.64,0,0,0,1.13.13,2.84,2.84,0,0,0,.44,0l.56-.09q-.07,1-.08,2h0A5.23,5.23,0,0,1,406.85,55a4.42,4.42,0,0,1,2.33-.59,5.22,5.22,0,0,1,1.41.2,3.39,3.39,0,0,1,1.29.69,3.56,3.56,0,0,1,.94,1.33,5.43,5.43,0,0,1,.36,2.14q0,1.08,0,2.21t0,2.41V65q0,.4,0,.79t0,.74q-.5,0-1,0t-1,0q0-1.3.11-2.67t.06-2.83V59.52A4.67,4.67,0,0,0,410.5,56.69Z"/><path d="M424.48,55.83q0-1.65-.06-3.25t-.14-3.2l1.33.09q.67,0,1.32,0t1.33-.06q.68-.06,1.33-.06a12,12,0,0,1,2,.16,5.11,5.11,0,0,1,1.67.57,3.14,3.14,0,0,1,1.15,1.11,3.32,3.32,0,0,1,.43,1.75,3.71,3.71,0,0,1-1.16,2.9,6.61,6.61,0,0,1-3,1.48v0a6.17,6.17,0,0,1,3.51,1.08,3.67,3.67,0,0,1,1.29,3.13,4.46,4.46,0,0,1-.58,2.35,4.65,4.65,0,0,1-1.5,1.54,6.16,6.16,0,0,1-2,.83,10.56,10.56,0,0,1-2.21.24l-1.21,0-1.21,0h-1.21q-.61,0-1.21,0,.07-1.6.14-3.19t.06-3.24Zm3.4,1.22a8.71,8.71,0,0,0,1.74-.17,4.72,4.72,0,0,0,1.54-.59,3.19,3.19,0,0,0,1.09-1.1,3.33,3.33,0,0,0,.41-1.74,3.11,3.11,0,0,0-.37-1.64,2.74,2.74,0,0,0-1-1,3.65,3.65,0,0,0-1.3-.45,9.42,9.42,0,0,0-1.45-.11q-.65,0-1.1,0l-.8.09-.1,2.38q0,1.18,0,2.38V57Zm-1.35,3.48q0,1.28,0,2.52l.1,2.53,1.13.09q.65,0,1.33,0a4.37,4.37,0,0,0,1.54-.28,3.63,3.63,0,0,0,1.29-.81,3.91,3.91,0,0,0,.88-1.32,4.65,4.65,0,0,0,.33-1.79,3.57,3.57,0,0,0-.39-1.76,2.72,2.72,0,0,0-1.11-1.07,5.33,5.33,0,0,0-1.74-.54,15.53,15.53,0,0,0-2.26-.15h-1.12Z"/><path d="M438.18,60.65a7,7,0,0,1,.54-2.89,5.34,5.34,0,0,1,1.41-1.93,5.58,5.58,0,0,1,2-1.07,7.13,7.13,0,0,1,4.34,0,5.61,5.61,0,0,1,2,1.07,5.36,5.36,0,0,1,1.41,1.93,8,8,0,0,1,0,5.77,5.36,5.36,0,0,1-1.41,1.92,5.15,5.15,0,0,1-2,1,8,8,0,0,1-4.34,0,5.13,5.13,0,0,1-2-1,5.33,5.33,0,0,1-1.41-1.92A7,7,0,0,1,438.18,60.65Zm2.2,0a10.7,10.7,0,0,0,.19,2,5.4,5.4,0,0,0,.64,1.74,3.41,3.41,0,0,0,1.2,1.21,4,4,0,0,0,3.7,0,3.41,3.41,0,0,0,1.2-1.21,5.4,5.4,0,0,0,.64-1.74,11,11,0,0,0,0-4,5.4,5.4,0,0,0-.64-1.74,3.42,3.42,0,0,0-1.2-1.21,4,4,0,0,0-3.7,0,3.42,3.42,0,0,0-1.2,1.21,5.4,5.4,0,0,0-.64,1.74A10.7,10.7,0,0,0,440.38,60.65Z"/><path d="M455.38,51.33q-.07.95-.11,1.86T455.18,55h1q.75,0,1.63-.06a1,1,0,0,0,0,.27v.52a.88.88,0,0,0,0,.25l-.67,0h-2c0,.07,0,.33-.06.8s0,1-.06,1.66,0,1.31,0,2,0,1.33,0,1.88,0,.93,0,1.38a4.12,4.12,0,0,0,.24,1.21,2,2,0,0,0,.6.86,1.78,1.78,0,0,0,1.15.33,3.82,3.82,0,0,0,.54-.05,4.18,4.18,0,0,0,.59-.12v.6l-.94.19a4.6,4.6,0,0,1-1,.11A3.1,3.1,0,0,1,453.9,66a3.15,3.15,0,0,1-.75-2.27q0-.68,0-1.46t.06-1.73q0-.94.06-2.08t0-2.54H452.1l-.47,0c0-.1,0-.2,0-.29s0-.19,0-.29a2.39,2.39,0,0,0,0-.25,2.49,2.49,0,0,0,0-.25q1.13.08,1.65.08c0-.33,0-.75,0-1.25s0-1-.06-1.55l2.08-.87Z"/><path d="M459,61a7.3,7.3,0,0,1,1.46-4.83,5.24,5.24,0,0,1,4.26-1.75,5.79,5.79,0,0,1,2.29.41,4.79,4.79,0,0,1,1.61,1.1,4.34,4.34,0,0,1,1,1.61,6.12,6.12,0,0,1,.31,2q0,.25,0,.49t0,.49l-2.67,0-2.67,0-1.64,0-1.64,0a2.09,2.09,0,0,0,0,.38v.33a5.66,5.66,0,0,0,.29,1.82,4.13,4.13,0,0,0,.84,1.46,4,4,0,0,0,1.35,1,4.44,4.44,0,0,0,1.85.36,4,4,0,0,0,1-.14,5.8,5.8,0,0,0,1-.37,5.6,5.6,0,0,0,.94-.56,4.77,4.77,0,0,0,.76-.7l.13.08-.15,1.23a6.91,6.91,0,0,1-1.86,1,6.43,6.43,0,0,1-2.31.42,7,7,0,0,1-2.46-.41,5.45,5.45,0,0,1-1.92-1.2,5.38,5.38,0,0,1-1.25-1.86A6.1,6.1,0,0,1,459,61Zm5.77-5.77a2.76,2.76,0,0,0-1.56.42,3.66,3.66,0,0,0-1,1.06,5.09,5.09,0,0,0-.62,1.4,7.42,7.42,0,0,0-.26,1.44l1.61.05,1.64,0,1.68,0,1.65-.05a9.59,9.59,0,0,0-.11-1.42,4.44,4.44,0,0,0-.45-1.4,3,3,0,0,0-.94-1.08A2.67,2.67,0,0,0,464.8,55.23Z"/><path d="M477.79,56.45a2.25,2.25,0,0,0-.74-.12,2.11,2.11,0,0,0-1.07.27,2.5,2.5,0,0,0-.8.74,3.53,3.53,0,0,0-.5,1.1,5.15,5.15,0,0,0-.17,1.36v2.75q0,1.68,0,2.56a12.05,12.05,0,0,0,.09,1.44q-.5,0-1,0c-.37,0-.72,0-1.05,0q.08-.85.09-2.31t0-3.59v-.8q0-1,0-2.25t-.09-2.93l.53.09a3.55,3.55,0,0,0,.53,0,3.22,3.22,0,0,0,.47,0l.53-.09q-.1.9-.11,1.43t0,1l0,0q1.48-2.7,3.3-2.7l.39,0a2,2,0,0,1,.41.13,2.79,2.79,0,0,0-.15.91c0,.41,0,.78,0,1.11l-.17.13A1.12,1.12,0,0,0,477.79,56.45Z"/><path d="M479.85,60.65a7,7,0,0,1,.54-2.89,5.34,5.34,0,0,1,1.41-1.93,5.58,5.58,0,0,1,2-1.07,7.13,7.13,0,0,1,4.34,0,5.61,5.61,0,0,1,2,1.07,5.36,5.36,0,0,1,1.41,1.93,8,8,0,0,1,0,5.77,5.36,5.36,0,0,1-1.41,1.92,5.15,5.15,0,0,1-2,1,8,8,0,0,1-4.34,0,5.13,5.13,0,0,1-2-1,5.33,5.33,0,0,1-1.41-1.92A7,7,0,0,1,479.85,60.65Zm2.2,0a10.7,10.7,0,0,0,.19,2,5.4,5.4,0,0,0,.64,1.74,3.41,3.41,0,0,0,1.2,1.21,4,4,0,0,0,3.7,0,3.41,3.41,0,0,0,1.2-1.21,5.4,5.4,0,0,0,.64-1.74,11,11,0,0,0,0-4,5.4,5.4,0,0,0-.64-1.74,3.42,3.42,0,0,0-1.2-1.21,4,4,0,0,0-3.7,0,3.42,3.42,0,0,0-1.2,1.21,5.4,5.4,0,0,0-.64,1.74A10.7,10.7,0,0,0,482.05,60.65Z"/><path d="M444.05,86.55q-1.15-2.95-2.31-5.9t-2.54-6l.63.09a5.06,5.06,0,0,0,.63,0,4.09,4.09,0,0,0,.55,0l.55-.09q.77,2.48,1.69,4.86t2,4.89q.5-1,1-2.21t1-2.46q.49-1.28,1-2.56l.91-2.51a2.47,2.47,0,0,0,1.55,0q-1.35,3-2.65,6t-2.37,5.9a5.89,5.89,0,0,0-.78,0A6.47,6.47,0,0,0,444.05,86.55Z"/><path d="M461.23,73a2.17,2.17,0,0,0-.75-.8V72q1.42-.57,2.91-1.26t2.79-1.34l.18.13q-.1,1.65-.15,3.26t0,3.26V80.2q0,1.65,0,3.24t.15,3.11a3.59,3.59,0,0,0-.59,0h-1.17a3.58,3.58,0,0,0-.59,0q.12-1.55.16-3.12t0-3.22V71.3Z"/><path d="M474.08,85.38a1.42,1.42,0,0,1,2.85,0,1.25,1.25,0,0,1-.42,1,1.48,1.48,0,0,1-2,0A1.25,1.25,0,0,1,474.08,85.38Z"/><path d="M480.08,78.3a17.76,17.76,0,0,1,.3-3.34,8.43,8.43,0,0,1,1-2.73,5.28,5.28,0,0,1,1.81-1.85,5.18,5.18,0,0,1,2.75-.69,5.62,5.62,0,0,1,2.94.69,5,5,0,0,1,1.79,1.85,8,8,0,0,1,.89,2.73,22.25,22.25,0,0,1,.24,3.34,14.89,14.89,0,0,1-.35,3.28,9.11,9.11,0,0,1-1.06,2.72,5.44,5.44,0,0,1-1.81,1.85,4.92,4.92,0,0,1-2.62.68,5.87,5.87,0,0,1-2.94-.65,4.67,4.67,0,0,1-1.79-1.81,8,8,0,0,1-.89-2.72A22.25,22.25,0,0,1,480.08,78.3Zm2,0a23.63,23.63,0,0,0,.19,3.08,9.41,9.41,0,0,0,.64,2.48,4.28,4.28,0,0,0,1.17,1.65,3,3,0,0,0,3.6,0,4.28,4.28,0,0,0,1.17-1.65,9.41,9.41,0,0,0,.64-2.48,25.31,25.31,0,0,0,0-6.15,9.41,9.41,0,0,0-.64-2.48,4.27,4.27,0,0,0-1.17-1.65,2.73,2.73,0,0,0-1.8-.6,2.9,2.9,0,0,0-1.8.55A3.88,3.88,0,0,0,483,72.63a9.07,9.07,0,0,0-.64,2.46A25,25,0,0,0,482.13,78.3Z"/></g></g></svg>